<svg width="512" height="512" viewBox="0 0 512 512" fill="none" xmlns="http://www.w3.org/2000/svg">
<path d="M256 32C379.5 32 480 132.5 480 256C480 379.5 379.5 480 256 480C132.5 480 32 379.5 32 256C32 132.5 132.5 32 256 32ZM256 0C114.625 0 0 114.625 0 256C0 397.375 114.625 512 256 512C397.375 512 512 397.375 512 256C512 114.625 397.375 0 256 0ZM398.719 341.594L397.281 337.219C393.906 327.157 382.781 316.657 372.531 313.844L334.688 303.5C324.438 300.719 309.813 304.469 302.283 312L288.595 325.688C238.845 312.219 199.814 273.188 186.376 223.438L200.064 209.75C207.564 202.25 211.314 187.625 208.533 177.344L198.219 139.5C195.438 129.25 184.875 118.125 174.813 114.75L170.5 113.312C160.406 109.937 146 113.343 138.5 120.875L118 141.375C114.344 145 112 155.406 112 155.438C111.312 220.501 136.813 283.157 182.813 329.188C228.688 375.063 291.126 400.533 355.969 399.969C356.313 399.969 367.032 397.688 370.688 394.031L391.188 373.531C398.688 366.062 402.062 351.656 398.719 341.594Z" fill="#6E6E6E"/>
</svg>
