<svg width="1500" height="1000" viewBox="0 0 1500 1000" fill="none" xmlns="http://www.w3.org/2000/svg">
<path d="M502.006 371.084C511.678 373.817 520.877 377.394 529.471 382.644C531.438 383.844 533.544 382.244 533.721 380.205C533.916 378.061 534.11 375.589 534.716 373.289C536.077 374.376 537.661 375.152 539.354 375.561C544.565 376.845 549.054 374.75 550.493 370.084C550.847 369.582 550.997 368.965 550.915 368.357C550.91 368.279 550.893 368.212 550.882 368.14L550.915 367.923C550.995 367.317 550.844 366.702 550.493 366.201C549.054 361.53 544.571 359.435 539.354 360.719C537.516 361.169 535.993 361.969 534.71 362.991C534.099 360.708 533.91 358.241 533.716 356.075C533.532 354.031 531.427 352.436 529.466 353.636C520.872 358.886 511.672 362.463 502 365.196C501.366 365.354 500.813 365.743 500.448 366.286C500.084 366.828 499.934 367.487 500.028 368.134C499.933 368.784 500.082 369.445 500.448 369.991C500.814 370.536 501.369 370.926 502.006 371.084V371.084ZM511.511 368.14C517.421 366.134 523.149 363.628 528.633 360.646C529.06 363.235 529.721 365.835 530.805 368.14C529.747 370.529 529.016 373.049 528.633 375.634C523.144 372.617 517.411 370.179 511.511 368.14ZM545.226 368.14C544.638 372.073 539.327 369.729 537.499 368.14C539.354 366.507 544.638 364.135 545.226 368.14Z" fill="black"/>
<path d="M555.976 369.323C556.57 372.717 559.282 375.439 562.937 375.439C566.803 375.439 569.981 372.201 570.02 368.362C570.053 364.59 566.898 361.435 563.17 361.296C559.426 361.158 556.593 363.918 555.976 367.39C555.878 367.704 555.839 368.034 555.859 368.362C555.842 368.687 555.881 369.012 555.976 369.323ZM564.365 368.357C564.365 370.212 561.609 370.19 561.509 368.357C561.609 366.518 564.365 366.507 564.365 368.357Z" fill="black"/>
<path d="M576.053 368.945C576.975 388.904 591.764 404.763 610.485 410.579C633.434 417.712 658.322 409.968 679.899 401.808C693.01 396.848 705.654 391.126 717.698 384.299C722.169 387.468 726.53 390.788 730.775 394.254C724.931 402.114 720.592 410.874 719.248 420.617C716.598 439.798 728.064 463.945 749.275 465.217C749.498 465.259 749.725 465.278 749.953 465.273L750.008 465.267L750.058 465.273C750.28 465.28 750.501 465.263 750.719 465.223C769.296 464.112 780.429 445.248 781.151 428.011C781.674 415.518 776.557 404.197 769.174 394.309C773.406 390.851 777.754 387.538 782.212 384.377C791.727 389.82 801.621 394.572 811.817 398.598C833.388 407.13 857.076 416.045 880.681 412.557C903.047 409.252 922.852 392.398 923.957 369.007C923.997 368.792 924.014 368.574 924.007 368.357L923.996 368.129L924.007 367.918C924.01 367.721 923.995 367.524 923.963 367.329C923.041 347.37 908.252 331.511 889.531 325.695C866.582 318.563 841.694 326.306 820.117 334.466C807.006 339.427 794.362 345.148 782.318 351.975C777.846 348.803 773.485 345.487 769.241 342.021C775.085 334.161 779.424 325.401 780.768 315.657C783.418 296.476 771.952 272.329 750.741 271.057C750.518 271.015 750.291 270.996 750.064 271.001L750.008 271.007L749.958 271.001C749.737 270.995 749.515 271.011 749.297 271.051C730.72 272.162 719.587 291.027 718.865 308.264C718.343 320.757 723.459 332.078 730.842 341.965C726.61 345.424 722.262 348.736 717.804 351.897C708.289 346.455 698.395 341.702 688.199 337.677C666.628 329.145 642.94 320.229 619.335 323.717C596.969 327.023 577.164 343.876 576.059 367.268C576.019 367.482 576.002 367.7 576.009 367.918L576.02 368.146L576.009 368.357C576.003 368.554 576.018 368.751 576.053 368.945V368.945ZM728.937 385.599C726.987 384.094 725.015 382.627 723.02 381.183C727.973 378.194 732.801 375.003 737.492 371.617C740.312 373.716 743.078 375.887 745.786 378.128C741.692 381.772 737.848 385.687 734.281 389.849C732.514 388.404 730.737 386.988 728.937 385.599V385.599ZM732.731 368.14C727.983 371.528 723.096 374.716 718.081 377.694C713.193 374.328 708.182 371.151 703.071 368.146C708.177 365.153 713.173 361.975 718.048 358.619C723.08 361.576 727.979 364.752 732.731 368.14V368.14ZM750.002 292.349C761.119 292.443 762.296 306.158 758.313 313.752C756.208 317.768 753.252 321.368 750.002 324.723C746.758 321.373 743.803 317.774 741.692 313.752C737.714 306.181 738.853 292.443 750.002 292.349ZM750.297 332.755L751.464 333.866C754.698 336.947 758.016 339.938 761.413 342.837C757.861 346.977 754.022 350.862 749.925 354.464C745.939 350.951 742.211 347.157 738.77 343.11C742.778 339.848 746.626 336.392 750.297 332.755V332.755ZM750.019 361.819C752.579 363.992 755.191 366.104 757.852 368.151C757.308 368.568 756.758 368.979 756.219 369.401C754.114 371.052 752.038 372.739 749.991 374.461C747.43 372.284 744.819 370.179 742.158 368.129C742.703 367.712 743.253 367.301 743.792 366.879C745.853 365.257 747.941 363.568 750.019 361.819ZM750.002 443.931C738.886 443.837 737.708 430.122 741.692 422.528C743.797 418.512 746.753 414.912 750.002 411.563C753.247 414.912 756.202 418.512 758.313 422.528C762.291 430.099 761.152 443.837 750.002 443.931ZM749.708 403.525L748.541 402.414C745.307 399.333 741.989 396.342 738.592 393.443C742.144 389.303 745.983 385.418 750.08 381.816C754.066 385.329 757.794 389.123 761.235 393.17C757.227 396.432 753.379 399.888 749.708 403.525V403.525ZM772.457 411.368C779.435 428.777 772.841 458.824 750.002 459.618C730.853 458.946 721.831 435.254 725.248 418.884C726.853 411.196 730.442 404.214 735.103 397.864C736.862 399.371 738.597 400.904 740.308 402.464C742.131 404.125 744.025 405.813 745.892 407.558C743.469 410.241 741.203 413.012 739.17 415.901C734.575 422.434 731.97 430.477 734.881 438.232C737.314 444.714 742.814 449.458 749.852 449.58L749.953 449.592H750.058L750.136 449.586C764.38 449.375 769.174 432.832 764.119 421.6C761.758 416.345 758.002 411.852 753.952 407.708C755.874 405.908 757.824 404.169 759.697 402.464C761.402 400.908 763.135 399.386 764.885 397.881C767.952 402.05 770.495 406.58 772.457 411.368V411.368ZM765.524 389.743C762.018 385.665 758.255 381.815 754.258 378.217C756.949 375.952 759.7 373.759 762.508 371.64C767.17 375.028 771.966 378.229 776.885 381.233C773.048 384.002 769.26 386.839 765.524 389.743V389.743ZM767.274 368.14C772.022 364.752 776.909 361.564 781.924 358.586C786.812 361.946 791.818 365.131 796.934 368.134C791.828 371.127 786.832 374.305 781.957 377.661C776.925 374.704 772.026 371.528 767.274 368.14V368.14ZM814.933 342.499C833.505 335.216 853.304 327.8 873.576 328.7C895.625 329.678 917.685 344.471 918.335 368.151C917.774 388.015 901.469 402.703 882.742 406.491C862.132 410.657 840.71 403.591 821.605 396.364C809.8 391.904 798.367 386.799 787.412 380.772C792.351 377.453 797.41 374.317 802.578 371.367C807.977 374.369 813.482 377.174 819.083 379.778C835.416 387.338 853.743 395.248 871.854 396.781C889.553 398.281 904.119 386.877 905.119 369.018C905.161 368.8 905.18 368.578 905.175 368.357L905.164 368.173L905.175 367.923C905.178 367.675 905.152 367.427 905.097 367.185C904.236 352.681 894.12 341.127 879.359 339.554C870.337 338.593 861.226 341.132 852.649 343.648C843.786 346.295 835.089 349.468 826.605 353.153C818.404 356.673 810.383 360.599 802.573 364.918C797.384 361.957 792.307 358.808 787.351 355.475C796.246 350.541 805.461 346.206 814.933 342.499V342.499ZM808.4 368.14C823.55 359.974 839.583 353.175 856.138 348.526C865.326 345.943 875.57 343.115 884.936 346.487C894.086 349.776 899.208 358.752 899.514 368.14C899.208 377.522 894.081 386.51 884.936 389.799C875.576 393.165 865.321 390.337 856.138 387.76C839.583 383.105 823.55 376.306 808.4 368.14V368.14ZM771.068 350.681C773.018 352.183 774.99 353.655 776.985 355.097C772.032 358.086 767.204 361.277 762.513 364.663C759.741 362.591 756.952 360.424 754.219 358.152C758.313 354.508 762.157 350.593 765.724 346.431C767.491 347.876 769.268 349.292 771.068 350.681V350.681ZM727.548 324.912C720.57 307.503 727.164 277.456 750.002 276.662C769.152 277.334 778.174 301.026 774.757 317.396C773.152 325.084 769.563 332.066 764.902 338.416C763.146 336.91 761.408 335.377 759.697 333.816C757.874 332.155 755.98 330.467 754.113 328.722C756.536 326.039 758.802 323.268 760.835 320.379C765.43 313.846 768.035 305.803 765.124 298.048C762.691 291.566 757.191 286.822 750.158 286.7L750.058 286.688H749.953L749.875 286.694C735.631 286.905 730.837 303.448 735.892 314.68C738.253 319.935 742.008 324.428 746.058 328.572C744.136 330.372 742.186 332.111 740.314 333.816C738.608 335.372 736.875 336.894 735.125 338.399C732.07 334.183 729.47 329.706 727.548 324.912ZM734.481 346.537C737.987 350.615 741.75 354.465 745.747 358.063C743.056 360.328 740.305 362.521 737.497 364.64C732.834 361.25 728.036 358.05 723.115 355.047C726.954 352.279 730.744 349.442 734.481 346.537V346.537ZM617.263 329.795C637.873 325.628 659.295 332.694 678.4 339.921C690.205 344.382 701.638 349.487 712.593 355.514C707.655 358.831 702.598 361.968 697.432 364.918C692.034 361.916 686.529 359.111 680.927 356.508C664.594 348.948 646.267 341.038 628.157 339.504C610.458 338.005 595.891 349.409 594.891 367.268C594.849 367.486 594.831 367.707 594.836 367.929L594.847 368.112L594.836 368.362C594.832 368.611 594.858 368.859 594.914 369.101C595.775 383.605 605.891 395.153 620.652 396.731C629.674 397.692 638.784 395.153 647.362 392.637C656.225 389.991 664.921 386.817 673.405 383.133C681.607 379.613 689.627 375.686 697.438 371.367C702.626 374.327 707.703 377.477 712.659 380.811C703.766 385.744 694.553 390.079 685.083 393.787C666.511 401.069 646.712 408.485 626.44 407.585C604.391 406.608 582.331 391.815 581.681 368.134C582.225 348.265 598.536 333.577 617.263 329.795V329.795ZM691.605 368.14C676.455 376.306 660.422 383.105 643.867 387.754C634.679 390.337 624.435 393.165 615.068 389.793C605.919 386.505 600.797 377.528 600.491 368.14C600.797 358.752 605.924 349.77 615.068 346.481C624.429 343.115 634.684 345.943 643.867 348.52C660.422 353.175 676.455 359.974 691.605 368.14V368.14Z" fill="black"/>
<path d="M949.506 370.079C950.945 374.75 955.428 376.844 960.645 375.561C962.341 375.154 963.926 374.378 965.289 373.289C965.9 375.572 966.089 378.039 966.283 380.205C966.467 382.249 968.572 383.844 970.533 382.644C979.127 377.394 988.327 373.817 997.999 371.084C998.633 370.926 999.186 370.537 999.551 369.994C999.915 369.451 1000.06 368.793 999.971 368.146C1000.07 367.497 999.92 366.835 999.555 366.29C999.19 365.744 998.636 365.354 997.999 365.196C988.327 362.463 979.127 358.886 970.533 353.636C968.567 352.436 966.461 354.036 966.283 356.075C966.089 358.219 965.9 360.691 965.289 362.991C964.006 361.968 962.489 361.174 960.65 360.719C955.439 359.435 950.951 361.53 949.512 366.196C949.158 366.698 949.007 367.315 949.09 367.923C949.095 368.001 949.112 368.068 949.123 368.14L949.09 368.357C949.003 368.963 949.152 369.579 949.506 370.079V370.079ZM969.2 368.14C970.258 365.751 970.988 363.231 971.372 360.646C976.856 363.625 982.584 366.132 988.494 368.14C982.583 370.145 976.855 372.652 971.372 375.634C970.944 373.045 970.283 370.445 969.2 368.14V368.14ZM962.506 368.14C960.645 369.773 955.367 372.145 954.778 368.14C955.367 364.207 960.678 366.551 962.506 368.14Z" fill="black"/>
<path d="M936.835 375.422C940.579 375.561 943.412 372.801 944.029 369.329C944.126 369.015 944.166 368.685 944.145 368.357C944.163 368.03 944.124 367.703 944.029 367.39C943.434 363.996 940.723 361.274 937.068 361.274C933.201 361.274 930.024 364.513 929.99 368.351C929.951 372.128 933.107 375.289 936.835 375.422V375.422ZM938.496 368.357C938.396 370.195 935.64 370.206 935.64 368.357C935.64 366.501 938.396 366.524 938.496 368.357Z" fill="black"/>
<circle cx="210.5" cy="596.774" r="12.5" fill="white" stroke="black" stroke-width="10"/>
<circle cx="1288.5" cy="596.774" r="12.5" fill="white" stroke="black" stroke-width="10"/>
<path d="M317.199 607.677H303.625C303.625 623.172 303.951 639.578 304.602 656.896C304.602 657.286 304.764 657.644 305.09 657.97C305.415 658.295 305.871 658.621 306.457 658.946C307.108 659.272 308.182 659.695 309.68 660.216C311.177 660.737 314.204 661.323 318.762 661.974C323.319 662.56 325.923 662.918 326.574 663.048C327.681 666.694 327.486 670.698 325.988 675.06C301.965 674.539 287.382 674.278 282.238 674.278C278.723 674.278 266.451 674.539 245.422 675.06C243.794 670.567 243.794 666.368 245.422 662.462C259.549 661.03 266.678 659.109 266.809 656.7C267.59 640.424 267.98 619.949 267.98 595.274C267.98 574.311 267.655 556.179 267.004 540.88C266.874 538.471 259.615 536.551 245.227 535.118C243.99 530.561 244.12 526.362 245.617 522.521C265.604 523.172 278.853 523.497 285.363 523.497H375.793C377.421 536.258 382.499 549.702 391.027 563.829C389.53 566.954 386.047 569.493 380.578 571.446C375.24 561.746 367.362 553.673 356.945 547.228C346.594 540.717 333.15 537.462 316.613 537.462H304.602C303.951 560.834 303.625 578.771 303.625 591.271C306.815 591.401 311.405 591.466 317.395 591.466C322.863 591.466 327.225 589.643 330.48 585.997C333.736 582.286 337.316 576.524 341.223 568.712L345.422 560.509C350.891 562.462 354.341 564.968 355.773 568.028C348.872 580.463 345.422 590.685 345.422 598.692C345.422 607.351 348.872 617.54 355.773 629.259C354.211 632.579 350.891 635.118 345.812 636.876C344.315 634.858 342.59 631.798 340.637 627.696C337.967 623.269 335.852 619.981 334.289 617.833C332.727 615.62 330.415 613.406 327.355 611.192C324.296 608.979 320.91 607.807 317.199 607.677ZM288.586 601.915L316.418 601.72C319.217 601.72 321.854 602.176 324.328 603.087C326.802 603.998 328.755 604.942 330.188 605.919C331.685 606.83 333.378 608.621 335.266 611.29C337.219 613.959 338.586 615.912 339.367 617.149C340.214 618.321 341.581 620.795 343.469 624.571C345.422 628.347 346.724 630.789 347.375 631.896C349.393 631.049 350.663 630.17 351.184 629.259C344.673 617.67 341.418 607.481 341.418 598.692C341.418 594.656 342.329 589.741 344.152 583.946C346.04 578.152 348.384 572.846 351.184 568.028C350.923 567.117 349.654 566.271 347.375 565.489C346.854 566.401 345.812 568.354 344.25 571.349C342.753 574.343 341.776 576.297 341.32 577.208C340.865 578.054 339.921 579.649 338.488 581.993C337.121 584.337 336.014 585.899 335.168 586.681C334.387 587.462 333.215 588.634 331.652 590.196C330.155 591.694 328.69 592.735 327.258 593.321C325.891 593.842 324.263 594.33 322.375 594.786C320.487 595.242 318.501 595.47 316.418 595.47C304.243 595.47 294.966 595.34 288.586 595.079C288.586 579.324 288.977 558.784 289.758 533.458H316.809C348.645 533.458 370.52 544.461 382.434 566.466C384.126 565.815 385.233 564.936 385.754 563.829C379.243 550.548 371.952 541.173 363.879 535.704C355.806 530.235 343.762 527.501 327.746 527.501H282.629C274.491 527.501 263.065 527.241 248.352 526.72V531.31C263.326 532.742 270.878 535.867 271.008 540.685C271.659 555.984 271.984 574.181 271.984 595.274C271.984 615.912 271.594 636.453 270.812 656.896C270.682 661.713 263.13 664.838 248.156 666.271C247.635 667.312 247.635 668.842 248.156 670.86C259.224 670.47 270.585 670.274 282.238 670.274C296.105 670.274 309.419 670.47 322.18 670.86C322.701 669.819 322.701 668.289 322.18 666.271C300.695 664.968 289.823 661.843 289.562 656.896C288.911 641.531 288.586 623.204 288.586 601.915ZM471.984 646.642C472.505 630.366 472.505 614.057 471.984 597.716C471.984 595.437 467.069 593.484 457.238 591.856C455.741 587.885 455.741 583.946 457.238 580.04H499.426C501.249 580.756 502.551 581.537 503.332 582.384C504.178 583.23 504.927 584.467 505.578 586.095C505.578 587.267 505.415 589.122 505.09 591.661C504.764 594.2 504.602 596.218 504.602 597.716C503.951 619.135 503.951 637.787 504.602 653.673C509.289 655.17 514.237 656.049 519.445 656.31C520.878 660.151 520.878 664.285 519.445 668.712C510.917 669.233 500.37 672.162 487.805 677.501C480.708 676.98 475.435 674.832 471.984 671.056V668.517C463.065 674.246 452.486 677.11 440.246 677.11C431.392 677.11 425.109 674.702 421.398 669.884C417.688 665.066 415.767 657.514 415.637 647.228C415.767 630.886 415.767 614.383 415.637 597.716C415.637 595.437 410.689 593.484 400.793 591.856C399.361 587.885 399.361 583.946 400.793 580.04H443.176C445.064 580.756 446.398 581.537 447.18 582.384C448.026 583.23 448.775 584.467 449.426 586.095C449.426 587.267 449.263 589.122 448.938 591.661C448.612 594.2 448.449 596.218 448.449 597.716C447.993 612.885 447.993 628.347 448.449 644.103C448.71 651.524 450.044 655.854 452.453 657.091C457.206 655.854 463.716 652.371 471.984 646.642ZM475.988 597.716C476.379 614.643 476.379 631.635 475.988 648.692C463.879 657.351 454.536 661.681 447.961 661.681C439.042 661.681 434.582 655.821 434.582 644.103C434.191 628.347 434.191 612.885 434.582 597.716C434.582 595.958 434.745 593.842 435.07 591.368C435.461 588.894 435.656 587.332 435.656 586.681C434.94 585.183 433.996 584.174 432.824 583.653C423.189 584.304 413.586 584.304 404.016 583.653C403.495 585.151 403.495 586.681 404.016 588.243C414.302 589.871 419.51 593.028 419.641 597.716C419.771 614.252 419.771 630.756 419.641 647.228C419.51 656.082 421.04 662.625 424.23 666.856C427.421 671.023 432.759 673.106 440.246 673.106C450.077 673.106 461.991 667.019 475.988 654.845V669.103C476.509 670.144 477.648 670.991 479.406 671.642C488.716 668.191 500.793 665.88 515.637 664.708C516.158 663.08 516.158 661.551 515.637 660.118C504.439 659.662 496.171 658.328 490.832 656.114C490.311 632.872 490.311 613.406 490.832 597.716C490.832 595.958 490.995 593.842 491.32 591.368C491.646 588.894 491.809 587.332 491.809 586.681C491.158 585.183 490.214 584.174 488.977 583.653C479.536 584.174 469.999 584.174 460.363 583.653C459.842 585.151 459.842 586.681 460.363 588.243C470.65 589.871 475.858 593.028 475.988 597.716ZM571.008 615.294C572.635 609.304 575.988 603.478 581.066 597.814C586.145 592.149 591.32 589.317 596.594 589.317C602.779 589.317 605.871 591.303 605.871 595.274C605.871 598.855 604.178 601.134 600.793 602.11C599.882 603.412 599.882 604.942 600.793 606.7C604.309 606.7 607.173 605.626 609.387 603.478C611.665 601.329 612.805 598.334 612.805 594.493C612.805 590.457 611.568 587.299 609.094 585.021C606.685 582.677 603.527 581.505 599.621 581.505C594.543 581.505 589.432 583.556 584.289 587.657C579.211 591.694 574.784 596.218 571.008 601.231V584.435C570.487 583.393 569.38 582.547 567.688 581.896C558.964 585.997 548.872 588.666 537.414 589.903C537.023 591.466 537.023 592.996 537.414 594.493C546.203 594.884 552.486 596.218 556.262 598.497C556.783 622.781 556.717 642.247 556.066 656.896C555.936 661.713 550.402 664.838 539.465 666.271C538.488 668.028 538.488 669.558 539.465 670.86C556.522 670.079 575.109 670.079 595.227 670.86C596.138 669.558 596.138 668.028 595.227 666.271C579.797 664.838 572.017 661.713 571.887 656.896C571.301 643.679 571.008 629.812 571.008 615.294ZM585.656 656.7C585.786 659.239 590.181 661.225 598.84 662.657C600.988 666.954 600.858 671.088 598.449 675.06C570.845 674.148 549.979 673.953 535.852 674.474C533.443 670.633 533.312 666.694 535.461 662.657C546.398 661.225 551.932 659.239 552.062 656.7C552.844 638.146 552.909 619.526 552.258 600.841C547.961 599.539 542.036 598.692 534.484 598.302C532.987 594.396 532.987 590.261 534.484 585.899C545.357 585.248 556.88 582.319 569.055 577.11C576.086 577.892 581.359 580.008 584.875 583.458C590.344 579.487 595.259 577.501 599.621 577.501C604.699 577.501 608.833 578.998 612.023 581.993C615.214 584.988 616.809 589.155 616.809 594.493C616.809 599.571 615.311 603.543 612.316 606.407C609.322 609.272 605.48 610.704 600.793 610.704C596.431 610.704 592.785 609.239 589.855 606.31C587.186 609.89 585.526 613.146 584.875 616.075C584.875 630.203 585.135 643.745 585.656 656.7ZM698.645 665.782C697.863 667.28 697.863 668.875 698.645 670.567C715.572 670.177 732.531 670.177 749.523 670.567C750.435 669.005 750.435 667.41 749.523 665.782C733.638 665.001 725.63 661.876 725.5 656.407L724.523 607.286C724.198 598.367 722.733 591.856 720.129 587.755C717.59 583.588 713.098 581.505 706.652 581.505C695.845 581.505 682.987 588.959 668.078 603.868V584.435C667.557 583.393 666.418 582.547 664.66 581.896C655.611 586.127 646.203 588.797 636.438 589.903C636.047 591.466 636.047 592.996 636.438 594.493C643.924 594.884 649.458 596.218 653.039 598.497C653.755 617.963 653.755 637.267 653.039 656.407C652.909 661.225 647.31 664.35 636.242 665.782C635.461 667.28 635.461 668.875 636.242 670.567C653.169 669.916 670.194 669.916 687.316 670.567C688.098 668.875 688.098 667.28 687.316 665.782C675.142 664.48 668.99 661.355 668.859 656.407C668.339 642.866 668.078 627.436 668.078 610.118C681.164 598.595 691.418 592.833 698.84 592.833C705.936 592.833 709.484 598.725 709.484 610.509L709.289 656.407C709.289 659.597 708.312 661.843 706.359 663.146C704.406 664.383 701.835 665.261 698.645 665.782ZM695.52 673.985C693.892 670.144 693.892 666.205 695.52 662.169C697.603 662.169 699.751 661.616 701.965 660.509C704.178 659.337 705.285 657.97 705.285 656.407L705.48 610.509C705.48 603.412 704.081 599.083 701.281 597.521C696.464 598.692 689.986 602.208 681.848 608.067C681.848 625.971 682.108 642.019 682.629 656.212C682.954 659.662 685.559 661.648 690.441 662.169C692.069 666.205 692.069 670.144 690.441 673.985C671.366 673.334 652.193 673.334 632.922 673.985C631.294 670.144 631.294 666.205 632.922 662.169C643.534 660.737 648.905 658.751 649.035 656.212C649.751 637.853 649.751 619.396 649.035 600.841C644.673 599.539 639.302 598.692 632.922 598.302C631.424 594.396 631.424 590.261 632.922 585.899C642.753 585.379 653.82 582.449 666.125 577.11C673.156 577.631 678.397 579.747 681.848 583.458V586.681C691.092 580.561 701.704 577.501 713.684 577.501C722.473 577.501 728.723 579.91 732.434 584.728C736.21 589.48 738.163 597 738.293 607.286C738.553 633.133 738.879 649.506 739.27 656.407C739.4 659.077 743.99 660.997 753.039 662.169C754.536 666.466 754.406 670.405 752.648 673.985C733.573 673.595 714.53 673.595 695.52 673.985ZM793.273 533.067C807.987 533.067 815.344 538.406 815.344 549.083C815.344 559.76 807.987 565.099 793.273 565.099C791.06 565.099 788.977 564.676 787.023 563.829C785.135 562.983 783.475 561.843 782.043 560.411C780.611 558.914 779.471 557.189 778.625 555.235C777.779 553.282 777.355 551.231 777.355 549.083C777.355 546.935 777.779 544.884 778.625 542.931C779.471 540.978 780.611 539.285 782.043 537.853C783.475 536.355 785.135 535.183 787.023 534.337C788.977 533.491 791.06 533.067 793.273 533.067ZM784.289 540.685C782.336 542.963 781.359 545.763 781.359 549.083C781.359 550.776 781.62 552.371 782.141 553.868C782.727 555.301 783.508 556.57 784.484 557.677C785.461 558.718 786.568 559.565 787.805 560.216C789.107 560.802 790.474 561.095 791.906 561.095C793.273 561.095 794.608 560.802 795.91 560.216C797.212 559.565 798.352 558.718 799.328 557.677C800.305 556.57 801.086 555.301 801.672 553.868C802.258 552.371 802.551 550.776 802.551 549.083C802.551 547.39 802.258 545.828 801.672 544.396C801.086 542.898 800.305 541.629 799.328 540.587C798.352 539.48 797.212 538.634 795.91 538.048C794.608 537.397 793.273 537.071 791.906 537.071C790.539 537.071 789.204 537.364 787.902 537.95C786.6 538.536 785.396 539.448 784.289 540.685ZM823.742 665.782C808.247 664.35 800.435 661.225 800.305 656.407C799.654 636.876 799.393 612.885 799.523 584.435C799.003 583.393 797.863 582.547 796.105 581.896C787.056 586.127 777.648 588.797 767.883 589.903C767.492 591.466 767.492 592.996 767.883 594.493C775.24 594.884 780.839 596.218 784.68 598.497C785.266 622.781 785.201 642.084 784.484 656.407C784.354 661.225 778.82 664.35 767.883 665.782C767.232 667.41 767.232 669.005 767.883 670.567C786.568 670.177 805.188 670.177 823.742 670.567C824.393 669.005 824.393 667.41 823.742 665.782ZM827.355 662.169C828.397 666.205 828.397 670.144 827.355 673.985C806.392 673.334 785.396 673.334 764.367 673.985C763.26 670.144 763.26 666.205 764.367 662.169C774.979 661.127 780.35 659.142 780.48 656.212C781.327 637.983 781.392 619.526 780.676 600.841C776.314 599.539 770.878 598.692 764.367 598.302C762.87 594.396 762.87 590.261 764.367 585.899C774.198 585.379 785.266 582.449 797.57 577.11C804.602 577.631 809.842 579.747 813.293 583.458C813.033 615.489 813.293 639.741 814.074 656.212C814.27 659.142 818.697 661.127 827.355 662.169ZM873.352 593.321H911.73C912.642 590.782 912.642 588.439 911.73 586.29H873.352V564.903C871.724 564.187 870.096 564.187 868.469 564.903C866.06 569.396 863.391 573.334 860.461 576.72C857.531 580.04 855.057 582.384 853.039 583.751C851.086 585.053 848.254 586.746 844.543 588.829C844.087 590.196 844.087 591.694 844.543 593.321H856.457V644.493C856.457 663.569 864.335 673.106 880.09 673.106C886.796 673.106 892.98 671.381 898.645 667.931C904.309 664.415 908.54 660.118 911.34 655.04C910.754 653.608 909.68 652.827 908.117 652.696C901.997 658.165 896.073 660.899 890.344 660.899C879.016 660.899 873.352 655.756 873.352 645.47V593.321ZM906.945 648.497C911.047 649.018 913.977 651.264 915.734 655.235C912.349 661.42 907.434 666.596 900.988 670.763C894.543 674.995 887.577 677.11 880.09 677.11C861.73 677.11 852.551 666.238 852.551 644.493V597.228H840.539C839.562 593.777 839.562 590.196 840.539 586.485C844.51 584.207 847.538 582.351 849.621 580.919C851.704 579.422 854.309 577.013 857.434 573.692C860.559 570.372 863.326 566.368 865.734 561.681C871.854 559.142 878.983 559.272 887.121 562.071V582.286H915.539C917.622 587.104 917.622 592.084 915.539 597.228H887.121V645.47C887.121 651.72 889.367 655.398 893.859 656.505C897.766 655.659 902.128 652.989 906.945 648.497ZM998.742 646.642C999.263 630.366 999.263 614.057 998.742 597.716C998.742 595.437 993.827 593.484 983.996 591.856C982.499 587.885 982.499 583.946 983.996 580.04H1026.18C1028.01 580.756 1029.31 581.537 1030.09 582.384C1030.94 583.23 1031.68 584.467 1032.34 586.095C1032.34 587.267 1032.17 589.122 1031.85 591.661C1031.52 594.2 1031.36 596.218 1031.36 597.716C1030.71 619.135 1030.71 637.787 1031.36 653.673C1036.05 655.17 1040.99 656.049 1046.2 656.31C1047.64 660.151 1047.64 664.285 1046.2 668.712C1037.67 669.233 1027.13 672.162 1014.56 677.501C1007.47 676.98 1002.19 674.832 998.742 671.056V668.517C989.823 674.246 979.243 677.11 967.004 677.11C958.15 677.11 951.867 674.702 948.156 669.884C944.445 665.066 942.525 657.514 942.395 647.228C942.525 630.886 942.525 614.383 942.395 597.716C942.395 595.437 937.447 593.484 927.551 591.856C926.118 587.885 926.118 583.946 927.551 580.04H969.934C971.822 580.756 973.156 581.537 973.938 582.384C974.784 583.23 975.533 584.467 976.184 586.095C976.184 587.267 976.021 589.122 975.695 591.661C975.37 594.2 975.207 596.218 975.207 597.716C974.751 612.885 974.751 628.347 975.207 644.103C975.467 651.524 976.802 655.854 979.211 657.091C983.964 655.854 990.474 652.371 998.742 646.642ZM1002.75 597.716C1003.14 614.643 1003.14 631.635 1002.75 648.692C990.637 657.351 981.294 661.681 974.719 661.681C965.799 661.681 961.34 655.821 961.34 644.103C960.949 628.347 960.949 612.885 961.34 597.716C961.34 595.958 961.503 593.842 961.828 591.368C962.219 588.894 962.414 587.332 962.414 586.681C961.698 585.183 960.754 584.174 959.582 583.653C949.947 584.304 940.344 584.304 930.773 583.653C930.253 585.151 930.253 586.681 930.773 588.243C941.06 589.871 946.268 593.028 946.398 597.716C946.529 614.252 946.529 630.756 946.398 647.228C946.268 656.082 947.798 662.625 950.988 666.856C954.178 671.023 959.517 673.106 967.004 673.106C976.835 673.106 988.749 667.019 1002.75 654.845V669.103C1003.27 670.144 1004.41 670.991 1006.16 671.642C1015.47 668.191 1027.55 665.88 1042.39 664.708C1042.92 663.08 1042.92 661.551 1042.39 660.118C1031.2 659.662 1022.93 658.328 1017.59 656.114C1017.07 632.872 1017.07 613.406 1017.59 597.716C1017.59 595.958 1017.75 593.842 1018.08 591.368C1018.4 588.894 1018.57 587.332 1018.57 586.681C1017.92 585.183 1016.97 584.174 1015.73 583.653C1006.29 584.174 996.757 584.174 987.121 583.653C986.6 585.151 986.6 586.681 987.121 588.243C997.408 589.871 1002.62 593.028 1002.75 597.716ZM1097.77 615.294C1099.39 609.304 1102.75 603.478 1107.82 597.814C1112.9 592.149 1118.08 589.317 1123.35 589.317C1129.54 589.317 1132.63 591.303 1132.63 595.274C1132.63 598.855 1130.94 601.134 1127.55 602.11C1126.64 603.412 1126.64 604.942 1127.55 606.7C1131.07 606.7 1133.93 605.626 1136.14 603.478C1138.42 601.329 1139.56 598.334 1139.56 594.493C1139.56 590.457 1138.33 587.299 1135.85 585.021C1133.44 582.677 1130.29 581.505 1126.38 581.505C1121.3 581.505 1116.19 583.556 1111.05 587.657C1105.97 591.694 1101.54 596.218 1097.77 601.231V584.435C1097.24 583.393 1096.14 582.547 1094.45 581.896C1085.72 585.997 1075.63 588.666 1064.17 589.903C1063.78 591.466 1063.78 592.996 1064.17 594.493C1072.96 594.884 1079.24 596.218 1083.02 598.497C1083.54 622.781 1083.48 642.247 1082.82 656.896C1082.69 661.713 1077.16 664.838 1066.22 666.271C1065.25 668.028 1065.25 669.558 1066.22 670.86C1083.28 670.079 1101.87 670.079 1121.98 670.86C1122.9 669.558 1122.9 668.028 1121.98 666.271C1106.55 664.838 1098.77 661.713 1098.64 656.896C1098.06 643.679 1097.77 629.812 1097.77 615.294ZM1112.41 656.7C1112.54 659.239 1116.94 661.225 1125.6 662.657C1127.75 666.954 1127.62 671.088 1125.21 675.06C1097.6 674.148 1076.74 673.953 1062.61 674.474C1060.2 670.633 1060.07 666.694 1062.22 662.657C1073.16 661.225 1078.69 659.239 1078.82 656.7C1079.6 638.146 1079.67 619.526 1079.02 600.841C1074.72 599.539 1068.79 598.692 1061.24 598.302C1059.74 594.396 1059.74 590.261 1061.24 585.899C1072.11 585.248 1083.64 582.319 1095.81 577.11C1102.84 577.892 1108.12 580.008 1111.63 583.458C1117.1 579.487 1122.02 577.501 1126.38 577.501C1131.46 577.501 1135.59 578.998 1138.78 581.993C1141.97 584.988 1143.57 589.155 1143.57 594.493C1143.57 599.571 1142.07 603.543 1139.07 606.407C1136.08 609.272 1132.24 610.704 1127.55 610.704C1123.19 610.704 1119.54 609.239 1116.61 606.31C1113.94 609.89 1112.28 613.146 1111.63 616.075C1111.63 630.203 1111.89 643.745 1112.41 656.7ZM1207.43 587.853C1212.64 587.853 1216.42 589.545 1218.76 592.931C1221.11 596.251 1222.28 600.418 1222.28 605.431C1222.28 607.319 1221.95 609.467 1221.3 611.876H1183.21C1185.23 603.738 1188.49 597.716 1192.98 593.81C1197.54 589.838 1202.36 587.853 1207.43 587.853ZM1182.24 618.517H1235.46C1236.5 615.261 1237.02 611.909 1237.02 608.458C1237.02 600.841 1234.84 594.461 1230.48 589.317C1226.18 584.109 1219.32 581.505 1209.88 581.505C1197.57 581.505 1187.22 585.965 1178.82 594.884C1170.42 603.803 1166.22 615.131 1166.22 628.868C1166.22 643.517 1170.23 654.552 1178.23 661.974C1186.24 669.396 1195.65 673.106 1206.46 673.106C1214.46 673.106 1221.89 670.958 1228.72 666.661C1235.62 662.299 1240.67 655.756 1243.86 647.032C1242.95 645.991 1241.68 645.274 1240.05 644.884C1239.79 645.274 1239.01 646.349 1237.71 648.106C1236.47 649.799 1235.56 651.036 1234.97 651.817C1234.39 652.534 1233.31 653.608 1231.75 655.04C1230.25 656.407 1228.79 657.416 1227.36 658.067C1225.99 658.718 1224.23 659.37 1222.08 660.021C1219.93 660.606 1217.59 660.899 1215.05 660.899C1205.02 660.899 1197.05 657.937 1191.12 652.013C1185.2 646.023 1182.11 637.983 1181.85 627.892C1181.85 625.613 1181.98 622.488 1182.24 618.517ZM1238.49 640.294C1242.59 641.205 1245.91 643.256 1248.45 646.446C1244.74 656.603 1239.01 664.252 1231.26 669.396C1223.51 674.539 1215.25 677.11 1206.46 677.11C1194.48 677.11 1184.09 673.074 1175.3 665.001C1166.58 656.928 1162.22 644.884 1162.22 628.868C1162.22 614.35 1166.68 602.176 1175.6 592.345C1184.58 582.449 1197.28 577.501 1213.68 577.501C1238.49 577.501 1250.89 587.82 1250.89 608.458C1250.89 612.495 1249.95 617.182 1248.06 622.521H1195.62V628.868C1195.94 636.746 1198.09 643.159 1202.06 648.106C1206.03 652.989 1211.5 655.854 1218.47 656.7C1222.57 656.31 1225.96 654.91 1228.62 652.501C1231.29 650.092 1234.58 646.023 1238.49 640.294ZM1218.27 605.431C1218.27 598.269 1215.86 593.94 1211.05 592.442C1205.32 594.2 1201.05 599.343 1198.25 607.872H1218.08C1218.08 607.612 1218.11 607.221 1218.18 606.7C1218.24 606.179 1218.27 605.756 1218.27 605.431Z" fill="black"/>
</svg>
