<svg viewBox="0 0 97.9753 38.0682" width="62" height="24.09003493737707" xmlns="http://www.w3.org/2000/svg" xmlns:xlink="http://www.w3.org/1999/xlink" preserveAspectRatio="none"><defs></defs><style>.icon1k5bc_82z6 {fill:#393939;fill-opacity:1;}.icon2k5bc_82z6 {fill:#F56E56;fill-opacity:1;}.icon3k5bc_82z6 {fill:#D0D0D0;fill-opacity:1;}</style><g opacity="1" transform="rotate(180 97.9753 38.06820000000002)">
<svg width="97.9753" height="38.0682" x="97.9753" y="38.06820000000002" version="1.1" preserveAspectRatio="none" viewBox="4.998801231384277 32.51374053955078 90.00324249267578 34.97352600097656">
  <g transform="matrix(1 0 0 1 0 0)" class="icon1k5bc_82z6"><g><path d="M94.641 49.47c-1.741-.492-3.397-1.136-4.944-2.081-.354-.216-.733.072-.765.439-.035.386-.07.831-.179 1.245a2.148 2.148 0 00-.835-.409c-.938-.231-1.746.146-2.005.986a.438.438 0 00-.076.311c.001.014.004.026.006.039l-.006.039a.44.44 0 00.076.31c.259.841 1.066 1.218 2.005.987.331-.081.605-.225.836-.409.11.411.144.855.179 1.245.033.368.412.655.765.439 1.547-.945 3.203-1.589 4.944-2.081a.475.475 0 00.355-.529.476.476 0 00-.356-.531zM92.93 50a19.716 19.716 0 00-3.082 1.349c-.077-.466-.196-.934-.391-1.349a5.23 5.23 0 00.391-1.349c.988.543 2.02.982 3.082 1.349zm-6.069 0c.106-.708 1.062-.286 1.391 0-.334.294-1.285.721-1.391 0z"></path><path d="M84.926 49.787c-.107-.611-.595-1.101-1.253-1.101-.696 0-1.268.583-1.275 1.274-.006.679.562 1.247 1.233 1.272.674.025 1.184-.472 1.295-1.097a.487.487 0 00.021-.175.501.501 0 00-.021-.173zm-1.51.174c0-.334.496-.33.514 0-.018.331-.514.333-.514 0z"></path><path d="M81.312 49.855c-.166-3.593-2.828-6.448-6.198-7.495-4.131-1.284-8.611.11-12.495 1.579-2.36.893-4.636 1.923-6.804 3.152a43.554 43.554 0 01-2.354-1.792c1.052-1.415 1.833-2.992 2.075-4.746.477-3.453-1.587-7.8-5.405-8.029a.591.591 0 00-.122-.01l-.01.001-.009-.001a.564.564 0 00-.119.009c-3.344.2-5.348 3.596-5.478 6.699-.094 2.249.827 4.287 2.156 6.067a43.197 43.197 0 01-2.347 1.788 41.22 41.22 0 00-5.329-2.56c-3.883-1.536-8.147-3.141-12.396-2.513-4.026.595-7.591 3.629-7.79 7.84a.545.545 0 00-.009.117l.002.041-.002.038a.593.593 0 00.008.106c.166 3.593 2.828 6.448 6.198 7.495 4.131 1.284 8.611-.11 12.495-1.579 2.36-.893 4.636-1.923 6.804-3.152.805.571 1.59 1.168 2.354 1.792-1.052 1.415-1.833 2.992-2.075 4.746-.477 3.453 1.587 7.8 5.405 8.029a.591.591 0 00.122.01l.01-.001.009.001a.564.564 0 00.119-.009c3.344-.2 5.348-3.596 5.478-6.699.094-2.249-.827-4.287-2.156-6.067a43.197 43.197 0 012.347-1.788 41.22 41.22 0 005.329 2.56c3.883 1.536 8.147 3.141 12.396 2.513 4.026-.595 7.591-3.629 7.79-7.84a.545.545 0 00.009-.117l-.002-.041.002-.038a.513.513 0 00-.008-.106zm-27.52-2.998c.351.271.706.535 1.065.795a38.051 38.051 0 00-2.605 1.722 36.797 36.797 0 01-1.493-1.172 21.948 21.948 0 002.071-2.11c.318.26.638.515.962.765zM53.109 50a37.584 37.584 0 012.637-1.72c.88.606 1.782 1.178 2.702 1.719a43.818 43.818 0 00-2.696 1.715A35.78 35.78 0 0153.109 50zM50 63.644c-2.001-.017-2.213-2.486-1.496-3.853.379-.723.911-1.371 1.496-1.975.584.603 1.116 1.251 1.496 1.975.716 1.363.511 3.836-1.496 3.853zm-.053-7.274l-.21-.2a44.14 44.14 0 00-1.791-1.615 20.96 20.96 0 012.068-2.093 19.963 19.963 0 012.008 2.044 28.548 28.548 0 00-2.075 1.864zm.05-5.232a37.533 37.533 0 00-1.41-1.14c.098-.075.197-.149.294-.225a41.93 41.93 0 001.121-.911c.461.392.931.771 1.41 1.14-.098.075-.197.149-.294.225-.371.292-.747.596-1.121.911zM50 36.356c2.001.017 2.213 2.486 1.496 3.853-.379.723-.911 1.371-1.496 1.974-.584-.603-1.116-1.251-1.496-1.974-.716-1.363-.511-3.836 1.496-3.853zm.053 7.274l.21.2a44.14 44.14 0 001.791 1.615 20.96 20.96 0 01-2.068 2.093 19.963 19.963 0 01-2.008-2.044 28.548 28.548 0 002.075-1.864zm-4.095-1.412c-1.256-3.134-.069-8.543 4.042-8.686 3.447.121 5.071 4.386 4.456 7.333-.289 1.384-.935 2.641-1.774 3.784a40.749 40.749 0 01-.937-.828c-.328-.299-.669-.603-1.005-.917.436-.483.844-.982 1.21-1.502.827-1.176 1.296-2.624.772-4.02-.438-1.167-1.428-2.021-2.695-2.043l-.018-.002h-.019l-.014.001c-2.564.038-3.427 3.016-2.517 5.038.425.946 1.101 1.755 1.83 2.501-.346.324-.697.637-1.034.944-.307.28-.619.554-.934.825a11.381 11.381 0 01-1.363-2.428zm1.248 3.893a22.756 22.756 0 002.028 2.075 35.836 35.836 0 01-1.485 1.184 38.797 38.797 0 00-2.588-1.727 72.014 72.014 0 002.045-1.532zM46.891 50a37.584 37.584 0 01-2.637 1.72 44.811 44.811 0 00-2.702-1.719 43.818 43.818 0 002.696-1.715A35.78 35.78 0 0146.891 50zm-8.579 4.616c-3.343 1.311-6.907 2.646-10.556 2.484-3.969-.176-7.94-2.839-8.057-7.102.101-3.576 3.036-6.22 6.407-6.902 3.71-.75 7.566.522 11.005 1.823 2.125.803 4.183 1.722 6.155 2.807a43.987 43.987 0 01-2.73 1.693 46.05 46.05 0 00-2.971-1.514c-2.94-1.361-6.239-2.785-9.499-3.061-3.186-.27-5.808 1.783-5.988 4.998a.562.562 0 00-.01.119l.002.033-.002.045a.56.56 0 00.014.133c.155 2.611 1.976 4.691 4.633 4.974 1.624.173 3.264-.284 4.808-.737a41.758 41.758 0 004.688-1.711 48.336 48.336 0 004.326-2.118c.934.533 1.848 1.1 2.74 1.7a41.153 41.153 0 01-4.965 2.336zM39.488 50c-2.727 1.47-5.613 2.694-8.593 3.531-1.654.465-3.498.974-5.184.367-1.647-.592-2.569-2.208-2.624-3.898.055-1.689.978-3.307 2.624-3.899 1.685-.606 3.531-.097 5.184.367 2.98.838 5.866 2.062 8.593 3.532zm6.72 3.143a43.292 43.292 0 00-1.065-.795 38.051 38.051 0 002.605-1.722c.499.373 1.001.763 1.493 1.172a21.948 21.948 0 00-2.071 2.11c-.318-.26-.638-.515-.962-.765zm7.834 4.639c1.256 3.134.069 8.543-4.042 8.686-3.447-.121-5.071-4.386-4.456-7.333.289-1.384.935-2.641 1.774-3.784.316.271.629.547.937.828.328.299.669.603 1.005.917-.436.483-.844.982-1.21 1.502-.827 1.176-1.296 2.624-.772 4.02.438 1.167 1.428 2.021 2.694 2.043l.018.002h.019l.014-.001c2.564-.038 3.427-3.016 2.517-5.038-.425-.946-1.101-1.755-1.83-2.501.346-.324.697-.637 1.034-.944.307-.28.619-.554.934-.825.55.759 1.018 1.565 1.364 2.428zm-1.248-3.893a22.756 22.756 0 00-2.028-2.075 35.836 35.836 0 011.485-1.184 38.56 38.56 0 002.589 1.727 70.64 70.64 0 00-2.046 1.532zm21.1 3.014c-3.71.75-7.566-.522-11.005-1.823-2.125-.803-4.183-1.722-6.155-2.807a44.261 44.261 0 012.729-1.693 46.05 46.05 0 002.971 1.514c2.94 1.361 6.239 2.785 9.499 3.061 3.186.27 5.808-1.783 5.988-4.998a.562.562 0 00.01-.119l-.002-.033.002-.045a.56.56 0 00-.014-.133c-.155-2.611-1.976-4.69-4.633-4.974-1.624-.173-3.264.284-4.808.737a41.758 41.758 0 00-4.688 1.711 48.336 48.336 0 00-4.326 2.118 43.845 43.845 0 01-2.74-1.7 41.22 41.22 0 014.964-2.336c3.343-1.311 6.907-2.646 10.556-2.484 3.969.176 7.94 2.839 8.057 7.102-.098 3.577-3.034 6.221-6.405 6.902zM60.512 50c2.727-1.47 5.613-2.694 8.593-3.531 1.654-.465 3.498-.974 5.184-.367 1.647.592 2.569 2.208 2.624 3.898-.055 1.69-.978 3.307-2.624 3.899-1.685.606-3.531.097-5.184-.367-2.98-.838-5.866-2.062-8.593-3.532z"></path><path d="M14.088 49.651c-.259-.841-1.066-1.218-2.005-.987a2.139 2.139 0 00-.836.409c-.11-.411-.144-.855-.179-1.245-.033-.368-.412-.655-.765-.439-1.547.945-3.203 1.589-4.944 2.081a.475.475 0 00-.355.529.475.475 0 00.355.531c1.741.492 3.397 1.136 4.944 2.081.354.216.733-.072.765-.439.035-.386.069-.831.179-1.245.231.184.504.327.835.409.938.231 1.746-.146 2.005-.986a.438.438 0 00.076-.311c-.001-.014-.004-.026-.006-.039l.006-.039a.43.43 0 00-.075-.31zM10.543 50a5.23 5.23 0 00-.391 1.349A19.799 19.799 0 007.07 50a19.716 19.716 0 003.082-1.349c.077.466.196.934.391 1.349zm1.205 0c.335-.294 1.285-.721 1.391 0-.106.708-1.062.286-1.391 0z"></path><path d="M16.369 48.689c-.674-.025-1.184.472-1.295 1.097a.487.487 0 00-.021.175.504.504 0 00.021.174c.107.611.595 1.101 1.253 1.101.696 0 1.268-.583 1.274-1.274.007-.68-.561-1.249-1.232-1.273zm-.299 1.272c.018-.331.514-.333.514 0 0 .334-.496.33-.514 0z"></path></g></g>
</svg>
</g></svg>